<?xml version="1.0" standalone="no"?>
<!DOCTYPE svg PUBLIC "-//W3C//DTD SVG 20010904//EN"
 "http://www.w3.org/TR/2001/REC-SVG-20010904/DTD/svg10.dtd">
<svg version="1.0" xmlns="http://www.w3.org/2000/svg"
 width="2099.000000pt" height="2099.000000pt" viewBox="0 0 2099.000000 2099.000000"
 preserveAspectRatio="xMidYMid meet">
<metadata>
Created by potrace 1.14, written by Peter Selinger 2001-2017
</metadata>
<g transform="translate(0.000000,2099.000000) scale(0.100000,-0.100000)"
fill="#000000" stroke="none">
<path d="M10165 19320 c-277 -15 -734 -85 -985 -151 -167 -44 -520 -161 -710
-236 -602 -236 -1155 -598 -1615 -1058 -691 -690 -1159 -1537 -1369 -2480 -90
-406 -116 -654 -123 -1172 -18 -1346 183 -2168 754 -3088 454 -730 1076 -1330
1813 -1747 510 -290 1113 -509 1652 -603 658 -114 1387 -92 2010 61 700 172
1384 556 1937 1090 67 64 121 111 121 105 0 -22 -101 -414 -155 -600 -141
-489 -369 -1121 -549 -1526 -255 -570 -614 -1139 -1063 -1684 -118 -144 -460
-485 -613 -611 -599 -496 -1294 -877 -2272 -1247 -68 -25 -271 -96 -453 -158
-277 -94 -332 -116 -342 -136 -7 -13 -42 -85 -78 -159 -416 -870 -1121 -1543
-2083 -1989 -148 -69 -451 -193 -551 -226 l-53 -17 6 -52 c17 -139 15 -134 49
-140 18 -3 122 -12 232 -21 1770 -135 3366 123 4640 751 1402 691 2483 1862
3186 3452 478 1080 816 2437 998 4007 61 522 76 763 109 1700 22 625 21 705
-2 772 -29 87 -141 193 -204 193 -35 0 -122 -52 -164 -99 -24 -27 -75 -108
-114 -182 -186 -351 -317 -557 -433 -682 -51 -56 -137 -156 -190 -222 -58 -71
-157 -174 -243 -253 -579 -531 -1140 -833 -1788 -966 -364 -74 -787 -79 -1250
-15 -535 74 -894 203 -1381 496 -328 197 -572 386 -803 624 -618 636 -1016
1523 -1096 2445 -17 187 -8 700 14 884 108 884 402 1626 864 2180 595 713
1262 1135 2047 1294 249 50 369 61 690 61 322 0 421 -10 652 -61 127 -28 339
-97 518 -169 435 -174 819 -414 1131 -709 197 -185 453 -497 642 -781 151
-226 222 -355 352 -639 53 -116 119 -254 145 -306 71 -141 202 -348 259 -408
54 -57 145 -108 211 -117 38 -5 42 -4 73 39 53 72 73 136 73 237 0 48 -7 118
-16 156 -9 37 -29 138 -45 223 -195 1058 -587 1917 -1182 2588 -376 424 -889
784 -1469 1033 -555 237 -1187 350 -1784 319z m694 -219 c540 -74 1051 -256
1541 -549 654 -391 1142 -928 1511 -1664 215 -429 383 -935 479 -1438 17 -91
42 -218 56 -283 25 -121 31 -207 15 -207 -14 0 -45 43 -131 180 -88 143 -133
229 -226 437 -210 472 -408 789 -743 1193 -118 143 -408 434 -521 524 -389
308 -879 560 -1370 705 -470 139 -1055 153 -1612 40 -801 -162 -1516 -611
-2115 -1327 -542 -647 -853 -1459 -944 -2462 -18 -200 -16 -652 5 -840 100
-924 476 -1768 1084 -2435 397 -436 1073 -876 1650 -1076 296 -102 689 -173
1112 -200 700 -44 1373 114 1986 467 380 218 860 616 1079 894 33 41 102 120
153 175 52 55 127 150 167 210 81 123 234 387 313 540 29 55 62 113 76 130
l23 29 18 -34 c23 -44 23 -67 2 -655 -34 -964 -48 -1194 -98 -1640 -230 -2068
-709 -3701 -1447 -4935 -476 -795 -1099 -1479 -1803 -1980 -992 -705 -2203
-1114 -3654 -1234 -289 -24 -751 -39 -1010 -32 -339 9 -535 18 -535 25 0 3 21
15 48 25 104 42 415 197 551 275 795 456 1360 1041 1751 1815 l86 168 224 78
c1327 456 2143 882 2868 1497 558 473 1148 1256 1546 2051 297 595 611 1477
806 2267 45 182 150 666 150 690 0 2 -44 -15 -97 -37 -120 -49 -166 -84 -249
-187 -128 -159 -373 -388 -591 -554 -386 -292 -847 -531 -1278 -662 -713 -217
-1644 -238 -2390 -54 -268 66 -610 184 -880 304 -960 425 -1748 1138 -2280
2065 -84 145 -233 442 -286 568 -232 554 -349 1268 -349 2132 0 643 66 1117
229 1646 316 1025 1021 1972 1906 2561 240 159 590 341 865 450 202 79 550
192 731 237 214 53 481 96 814 130 22 2 168 2 325 1 220 -3 320 -8 439 -24z"/>
<path d="M14293 14435 c-286 -52 -521 -231 -657 -500 -192 -384 -115 -881 186
-1188 165 -168 374 -250 638 -249 377 0 655 176 815 515 123 261 136 551 35
829 -42 115 -110 216 -217 318 -239 231 -517 326 -800 275z m325 -206 c193
-59 391 -217 476 -379 191 -364 61 -881 -267 -1069 -101 -57 -199 -83 -337
-89 -231 -8 -383 48 -530 197 -72 72 -94 103 -138 191 -74 147 -94 234 -95
395 -1 148 14 224 69 343 152 333 502 508 822 411z"/>
</g>
</svg>
